<?xml version="1.0" encoding="utf-8"?>
<!-- Generator: Adobe Illustrator 24.0.0, SVG Export Plug-In . SVG Version: 6.00 Build 0)  -->
<svg version="1.1" id="Layer_1" xmlns="http://www.w3.org/2000/svg" xmlns:xlink="http://www.w3.org/1999/xlink" x="0px" y="0px"
	 viewBox="0 0 615 251.3" style="enable-background:new 0 0 615 251.3;" xml:space="preserve">
<style type="text/css">
	.st0{fill:url(#SVGID_1_);}
	.st1{fill:url(#SVGID_2_);}
	.st2{fill:#F4F2F2;}
	.st3{font-family:'Seravek';}
	.st4{font-size:186px;}
	.st5{letter-spacing:-11;}
	.st6{fill:url(#SVGID_3_);}
	.st7{fill:url(#SVGID_4_);}
	.st8{fill:url(#SVGID_5_);}
	.st9{fill:url(#SVGID_6_);}
	.st10{fill:url(#SVGID_7_);}
	.st11{fill:url(#SVGID_8_);}
	.st12{fill:url(#SVGID_9_);}
	.st13{fill:url(#SVGID_10_);}
	.st14{fill:url(#SVGID_11_);}
	.st15{fill:url(#SVGID_12_);}
	.st16{fill:url(#SVGID_13_);}
	.st17{fill:url(#SVGID_14_);}
	.st18{fill:url(#SVGID_15_);}
	.st19{fill:url(#SVGID_16_);}
	.st20{fill:url(#SVGID_17_);}
	.st21{fill:url(#SVGID_18_);}
	.st22{fill:url(#SVGID_19_);}
	.st23{fill:url(#SVGID_20_);}
	.st24{fill:url(#SVGID_21_);}
	.st25{fill:url(#SVGID_22_);}
</style>
<linearGradient id="SVGID_1_" gradientUnits="userSpaceOnUse" x1="42.8924" y1="598.9764" x2="144.6629" y2="598.9764" gradientTransform="matrix(1 0 0 1 0 -555.43)">
	<stop  offset="0" style="stop-color:#635EFA"/>
	<stop  offset="1" style="stop-color:#01B3FB"/>
</linearGradient>
<path class="st0" d="M69.1,69.5C66,71.1,54.2,75,45.8,65.6c-4.8-5.4-3.7-20.5,3.2-24.7c4.6-2.9,14.5-5.7,21.3,0S78.2,55.3,84.6,59
	c6.1,3.5,13.4,1.6,20-3.9s10.1-7.9,8.4-16.5s-5.1-18.5,1.7-24.9s16.4-4.4,20-2.9c5.4,2.3,11,9.5,9.9,19.8S130.1,42.4,124,44.3
	s-8.2,5.5-8.8,9.7c-0.5,3.7,1.4,12.3-1.3,18.5c-1.1,2.5-3.2,6-9.1,5.3c-5.6-0.6-17-13.8-22.2-13.6S72.6,67.6,69.1,69.5z"/>
<linearGradient id="SVGID_2_" gradientUnits="userSpaceOnUse" x1="59.68" y1="701.14" x2="82.6" y2="701.14" gradientTransform="matrix(1 0 0 1 0 -555.43)">
	<stop  offset="0" style="stop-color:#635EFA"/>
	<stop  offset="1" style="stop-color:#01B3FB"/>
</linearGradient>
<circle class="st1" cx="71.1" cy="145.7" r="11.5"/>
<text transform="matrix(1 0 0 1 58.855 189.9507)" class="st2 st3 st4 st5">Rb Web</text>
<linearGradient id="SVGID_3_" gradientUnits="userSpaceOnUse" x1="0.8924" y1="314.9764" x2="102.6629" y2="314.9764" gradientTransform="matrix(1 0 0 1 0 -555.43)">
	<stop  offset="0" style="stop-color:#635EFA"/>
	<stop  offset="1" style="stop-color:#01B3FB"/>
</linearGradient>
<path class="st6" d="M27.1-214.5c-3.1,1.6-14.9,5.5-23.2-3.9c-4.8-5.4-3.7-20.5,3.2-24.7c4.6-2.9,14.5-5.7,21.3,0
	c6.7,5.7,7.8,14.5,14.2,18.1c6.1,3.5,13.4,1.6,20-3.9s10.1-7.9,8.4-16.5s-5.1-18.5,1.7-24.9s16.4-4.4,20-2.9
	c5.4,2.3,11,9.5,9.9,19.8S88.1-241.6,82-239.7c-6.1,1.9-8.2,5.5-8.8,9.7c-0.5,3.7,1.4,12.3-1.3,18.5c-1.1,2.5-3.2,6-9.1,5.3
	c-5.6-0.6-17-13.8-22.2-13.6S30.6-216.4,27.1-214.5z"/>
<linearGradient id="SVGID_4_" gradientUnits="userSpaceOnUse" x1="26.16" y1="282.89" x2="49.08" y2="282.89" gradientTransform="matrix(1 0 0 1 0 -555.43)">
	<stop  offset="0" style="stop-color:#635EFA"/>
	<stop  offset="1" style="stop-color:#01B3FB"/>
</linearGradient>
<circle class="st7" cx="37.6" cy="-272.5" r="11.5"/>
<linearGradient id="SVGID_5_" gradientUnits="userSpaceOnUse" x1="117.9" y1="282.89" x2="140.82" y2="282.89" gradientTransform="matrix(1 0 0 1 0 -555.43)">
	<stop  offset="0" style="stop-color:#635EFA"/>
	<stop  offset="1" style="stop-color:#01B3FB"/>
</linearGradient>
<circle class="st8" cx="129.4" cy="-272.5" r="11.5"/>
<linearGradient id="SVGID_6_" gradientUnits="userSpaceOnUse" x1="96.14" y1="339.12" x2="119.06" y2="339.12" gradientTransform="matrix(1 0 0 1 0 -555.43)">
	<stop  offset="0" style="stop-color:#635EFA"/>
	<stop  offset="1" style="stop-color:#01B3FB"/>
</linearGradient>
<circle class="st9" cx="107.6" cy="-216.3" r="11.5"/>
<linearGradient id="SVGID_7_" gradientUnits="userSpaceOnUse" x1="-37.77" y1="349.21" x2="-14.85" y2="349.21" gradientTransform="matrix(1 0 0 1 0 -555.43)">
	<stop  offset="0" style="stop-color:#635EFA"/>
	<stop  offset="1" style="stop-color:#01B3FB"/>
</linearGradient>
<circle class="st10" cx="-26.3" cy="-206.2" r="11.5"/>
<linearGradient id="SVGID_8_" gradientUnits="userSpaceOnUse" x1="17.68" y1="417.14" x2="40.6" y2="417.14" gradientTransform="matrix(1 0 0 1 0 -555.43)">
	<stop  offset="0" style="stop-color:#635EFA"/>
	<stop  offset="1" style="stop-color:#01B3FB"/>
</linearGradient>
<circle class="st11" cx="29.1" cy="-138.3" r="11.5"/>
<linearGradient id="SVGID_9_" gradientUnits="userSpaceOnUse" x1="-37.77" y1="441.17" x2="-14.85" y2="441.17" gradientTransform="matrix(1 0 0 1 0 -555.43)">
	<stop  offset="0" style="stop-color:#635EFA"/>
	<stop  offset="1" style="stop-color:#01B3FB"/>
</linearGradient>
<circle class="st12" cx="-26.3" cy="-114.3" r="11.5"/>
<linearGradient id="SVGID_10_" gradientUnits="userSpaceOnUse" x1="97.5" y1="449.92" x2="120.42" y2="449.92" gradientTransform="matrix(1 0 0 1 0 -555.43)">
	<stop  offset="0" style="stop-color:#635EFA"/>
	<stop  offset="1" style="stop-color:#01B3FB"/>
</linearGradient>
<circle class="st13" cx="109" cy="-105.5" r="11.5"/>
<linearGradient id="SVGID_11_" gradientUnits="userSpaceOnUse" x1="27.89" y1="505.6" x2="50.81" y2="505.6" gradientTransform="matrix(1 0 0 1 0 -555.43)">
	<stop  offset="0" style="stop-color:#635EFA"/>
	<stop  offset="1" style="stop-color:#01B3FB"/>
</linearGradient>
<circle class="st14" cx="39.3" cy="-49.8" r="11.5"/>
<linearGradient id="SVGID_12_" gradientUnits="userSpaceOnUse" x1="-27.3969" y1="420.3141" x2="40.21" y2="420.3141" gradientTransform="matrix(1 0 0 1 0 -555.43)">
	<stop  offset="0" style="stop-color:#635EFA"/>
	<stop  offset="1" style="stop-color:#01B3FB"/>
</linearGradient>
<path class="st15" d="M-6.3-177.2c-3.7-1-6.9-3.4-11.9-1c-4,1.9-6.5,6-8.1,11c-1.6,5-1.9,12.9,2.5,18.4s19.2,8.4,21.6,17.3
	s3.1,24.4,2.8,30.5c-0.2,5-1.6,14,2.6,19.9c3.9,5.1,10.7,7.1,16.8,4.9c5.9-1.9,10.3-3.4,13.5-10.8c2.2-5,1.6-11.8-1.6-16
	c-5.7-7.4-14.4-9.8-17.4-13.4S6.1-125.7,4-133c-1.8-6.5-1.2-18.9,0-24.1c1.4-5.9,5.6-13.7,8.6-15.3c5-2.6,13.7-1.8,17.5-1.8
	s7.7-1.6,9.4-5.1s0.2-9.8-2.6-12.8s-6.1-3.3-9.2-2.7s-6.9,3.9-8.6,7s-3.6,8.4-6.7,10c-3.4,1.8-7.2,2.6-11,2.2
	c-2.9-0.4-5.7-1-8.5-1.9"/>
<linearGradient id="SVGID_13_" gradientUnits="userSpaceOnUse" x1="51.6875" y1="477.983" x2="143.0901" y2="477.983" gradientTransform="matrix(1 0 0 1 0 -555.43)">
	<stop  offset="0" style="stop-color:#635EFA"/>
	<stop  offset="1" style="stop-color:#01B3FB"/>
</linearGradient>
<path class="st16" d="M74.8-89.4c2.4,3.8,3.6,5.1,8.7,6.2s10,1.4,13,5.3s4.1,9.1,7.9,13c2.6,2.6,5.6,4.7,8.8,6.3
	c3.3,1.6,7.3,1.2,11.8,0.2s7.9-3.1,12.2-1.8c2.4,0.8,5.9,4.4,5.9,9.4c0,3.9-3.1,8.1-5.3,10c-3.6,3.2-8.1,4.3-12.8,0.1
	c-7.8-7-6.5-9.2-9.9-12.1c-3.1-2.6-9.8-2.6-15.1-1s-8.9,7.2-14.3,7.6c-5,0.3-8.6-0.8-13.1-3.7c-4.7-3.1-5.2-13.1-4.6-18.8
	s2.4-9.5,2.2-13.3c-0.2-3.4-0.4-7.6-4.1-10s-9.2-3.2-11.9-7c-3-4.1-3.2-9.6-0.5-13.8c1.8-3,5.2-4.7,8.6-4.2
	c3.1,0.3,8.9,2.1,10.6,8.1c1.4,4.9,0,9.8,0,12.6C72.8-93.1,73-92.2,74.8-89.4z"/>
<linearGradient id="SVGID_14_" gradientUnits="userSpaceOnUse" x1="68.16" y1="566.89" x2="91.08" y2="566.89" gradientTransform="matrix(1 0 0 1 0 -555.43)">
	<stop  offset="0" style="stop-color:#635EFA"/>
	<stop  offset="1" style="stop-color:#01B3FB"/>
</linearGradient>
<circle class="st17" cx="79.6" cy="11.5" r="11.5"/>
<linearGradient id="SVGID_15_" gradientUnits="userSpaceOnUse" x1="159.9" y1="566.89" x2="182.82" y2="566.89" gradientTransform="matrix(1 0 0 1 0 -555.43)">
	<stop  offset="0" style="stop-color:#635EFA"/>
	<stop  offset="1" style="stop-color:#01B3FB"/>
</linearGradient>
<circle class="st18" cx="171.4" cy="11.5" r="11.5"/>
<linearGradient id="SVGID_16_" gradientUnits="userSpaceOnUse" x1="138.14" y1="623.12" x2="161.06" y2="623.12" gradientTransform="matrix(1 0 0 1 0 -555.43)">
	<stop  offset="0" style="stop-color:#635EFA"/>
	<stop  offset="1" style="stop-color:#01B3FB"/>
</linearGradient>
<circle class="st19" cx="149.6" cy="67.7" r="11.5"/>
<linearGradient id="SVGID_17_" gradientUnits="userSpaceOnUse" x1="4.23" y1="633.21" x2="27.15" y2="633.21" gradientTransform="matrix(1 0 0 1 0 -555.43)">
	<stop  offset="0" style="stop-color:#635EFA"/>
	<stop  offset="1" style="stop-color:#01B3FB"/>
</linearGradient>
<circle class="st20" cx="15.7" cy="77.8" r="11.5"/>
<linearGradient id="SVGID_18_" gradientUnits="userSpaceOnUse" x1="4.23" y1="725.17" x2="27.15" y2="725.17" gradientTransform="matrix(1 0 0 1 0 -555.43)">
	<stop  offset="0" style="stop-color:#635EFA"/>
	<stop  offset="1" style="stop-color:#01B3FB"/>
</linearGradient>
<circle class="st21" cx="15.7" cy="169.7" r="11.5"/>
<linearGradient id="SVGID_19_" gradientUnits="userSpaceOnUse" x1="139.5" y1="733.92" x2="162.42" y2="733.92" gradientTransform="matrix(1 0 0 1 0 -555.43)">
	<stop  offset="0" style="stop-color:#635EFA"/>
	<stop  offset="1" style="stop-color:#01B3FB"/>
</linearGradient>
<circle class="st22" cx="151" cy="178.5" r="11.5"/>
<linearGradient id="SVGID_20_" gradientUnits="userSpaceOnUse" x1="69.89" y1="789.6" x2="92.81" y2="789.6" gradientTransform="matrix(1 0 0 1 0 -555.43)">
	<stop  offset="0" style="stop-color:#635EFA"/>
	<stop  offset="1" style="stop-color:#01B3FB"/>
</linearGradient>
<circle class="st23" cx="81.3" cy="234.2" r="11.5"/>
<linearGradient id="SVGID_21_" gradientUnits="userSpaceOnUse" x1="14.6031" y1="704.3141" x2="82.21" y2="704.3141" gradientTransform="matrix(1 0 0 1 0 -555.43)">
	<stop  offset="0" style="stop-color:#635EFA"/>
	<stop  offset="1" style="stop-color:#01B3FB"/>
</linearGradient>
<path class="st24" d="M35.7,106.8c-3.7-1-6.9-3.4-11.9-1c-4,1.9-6.5,6-8.1,11s-1.9,12.9,2.6,18.4s19.2,8.4,21.6,17.3
	s3.1,24.4,2.8,30.5c-0.2,5-1.6,14,2.6,19.9c3.9,5.1,10.7,7.1,16.8,4.9c5.9-1.9,10.3-3.4,13.5-10.8c2.2-5,1.6-11.8-1.6-16
	c-5.7-7.4-14.4-9.8-17.4-13.4S48.1,158.3,46,151c-1.8-6.5-1.2-18.9,0-24.1c1.4-5.9,5.6-13.7,8.6-15.3c5-2.6,13.7-1.8,17.5-1.8
	s7.7-1.6,9.4-5.1s0.2-9.8-2.6-12.8s-6.1-3.3-9.2-2.7s-6.9,3.9-8.6,7s-3.6,8.4-6.7,10c-3.4,1.8-7.2,2.6-11,2.2
	c-2.9-0.4-5.7-1-8.5-1.9"/>
<linearGradient id="SVGID_22_" gradientUnits="userSpaceOnUse" x1="93.6875" y1="761.983" x2="185.0901" y2="761.983" gradientTransform="matrix(1 0 0 1 0 -555.43)">
	<stop  offset="0" style="stop-color:#635EFA"/>
	<stop  offset="1" style="stop-color:#01B3FB"/>
</linearGradient>
<path class="st25" d="M116.8,194.6c2.4,3.8,3.6,5.1,8.7,6.2s10,1.4,13,5.3s4.1,9.1,7.9,13c2.6,2.6,5.6,4.7,8.8,6.3
	c3.3,1.6,7.3,1.2,11.8,0.2s7.9-3.1,12.2-1.8c2.4,0.8,5.9,4.4,5.9,9.4c0,3.9-3.1,8.1-5.3,10c-3.6,3.2-8.1,4.3-12.8,0.1
	c-7.8-7-6.5-9.2-9.9-12.1c-3.1-2.6-9.8-2.6-15.1-1s-8.9,7.2-14.3,7.6c-5,0.3-8.6-0.8-13.1-3.7c-4.7-3.1-5.2-13.1-4.6-18.8
	s2.4-9.5,2.2-13.3c-0.2-3.4-0.4-7.6-4.1-10s-9.2-3.2-11.9-7c-3-4.1-3.2-9.6-0.5-13.8c1.8-3,5.2-4.7,8.6-4.2
	c3.1,0.3,8.9,2.1,10.6,8.1c1.4,4.9,0,9.8,0,12.6C114.8,190.9,115,191.8,116.8,194.6z"/>
<rect x="-313" y="-95" style="fill:none;" width="6" height="5"/>
</svg>
